<svg id="Слой_1" data-name="Слой 1" xmlns="http://www.w3.org/2000/svg" xmlns:xlink="http://www.w3.org/1999/xlink" viewBox="0 0 425.79 435.28"><defs><style>.cls-1{font-size:17.09px;fill:#1d1d1b;font-family:MyriadPro-Regular, Myriad Pro;}.cls-2{letter-spacing:-0.01em;}.cls-3{letter-spacing:0.01em;}.cls-4{letter-spacing:0em;}.cls-5{letter-spacing:-0.02em;}.cls-6{letter-spacing:0em;}.cls-7{letter-spacing:0em;}.cls-8{letter-spacing:-0.01em;}.cls-9{letter-spacing:-0.07em;}.cls-10{letter-spacing:0em;}.cls-11{letter-spacing:0em;}.cls-12{letter-spacing:-0.02em;}.cls-13{letter-spacing:0.01em;}.cls-14{letter-spacing:-0.01em;}.cls-15{letter-spacing:0em;}.cls-16{letter-spacing:-0.02em;}.cls-17{letter-spacing:0em;}.cls-18{letter-spacing:-0.01em;}.cls-19{letter-spacing:0em;}.cls-20{letter-spacing:0em;}.cls-21{letter-spacing:-0.01em;}.cls-22{letter-spacing:0em;}.cls-23{letter-spacing:0em;}.cls-24{letter-spacing:-0.02em;}.cls-25{letter-spacing:-0.01em;}.cls-26,.cls-28,.cls-33{fill:none;}.cls-26{stroke:#009640;}.cls-26,.cls-28{stroke-linecap:round;stroke-linejoin:round;}.cls-27{fill:#009640;}.cls-28{stroke:#e30613;}.cls-29{fill:#e30613;}.cls-30{fill:url(#Безымянный_градиент_11);}.cls-31{letter-spacing:-0.01em;}.cls-32{letter-spacing:0em;}.cls-33{stroke:#1d1d1b;stroke-miterlimit:10;}</style><linearGradient id="Безымянный_градиент_11" x1="65.28" y1="63.9" x2="347.71" y2="346.32" gradientUnits="userSpaceOnUse"><stop offset="0.28" stop-color="#3aaa35"/><stop offset="0.39" stop-color="#5f862e"/><stop offset="0.64" stop-color="#bd2b1b"/><stop offset="0.74" stop-color="#e30613"/></linearGradient></defs><title>ava</title><text class="cls-1" transform="translate(20.07 30.5)">Св<tspan class="cls-2" x="18.46" y="0">о</tspan><tspan x="27.72" y="0">д</tspan><tspan class="cls-3" x="36.77" y="0">к</tspan><tspan x="45.13" y="0">а за 28 дн. с уч</tspan><tspan class="cls-4" x="151.04" y="0">е</tspan><tspan class="cls-5" x="159.53" y="0">т</tspan><tspan x="166.21" y="0">ом изменений </tspan><tspan x="0" y="20.51">в пр</tspan><tspan class="cls-6" x="31.13" y="20.51">е</tspan><tspan x="39.75" y="20.51">ды</tspan><tspan class="cls-7" x="60.17" y="20.51">д</tspan><tspan x="69.17" y="20.51">у</tspan><tspan class="cls-4" x="77.22" y="20.51">щ</tspan><tspan x="89.95" y="20.51">ем пери</tspan><tspan class="cls-8" x="150.05" y="20.51">о</tspan><tspan class="cls-4" x="159.31" y="20.51">д</tspan><tspan x="168.3" y="20.51">е</tspan><tspan class="cls-9" x="0" y="41.01">Т</tspan><tspan x="7.35" y="41.01">в</tspan><tspan class="cls-7" x="15.89" y="41.01">и</tspan><tspan class="cls-2" x="25.31" y="41.01">т</tspan><tspan class="cls-10" x="32.21" y="41.01">ы</tspan><tspan x="0" y="61.52">23 35,3 %</tspan><tspan x="0" y="82.02">По</tspan><tspan class="cls-3" x="20.3" y="82.02">к</tspan><tspan x="28.66" y="82.02">азы </tspan><tspan class="cls-2" x="59.24" y="82.02">т</tspan><tspan x="66.15" y="82.02">в</tspan><tspan class="cls-11" x="74.69" y="82.02">и</tspan><tspan class="cls-12" x="84.11" y="82.02">т</tspan><tspan x="90.79" y="82.02">ов</tspan><tspan x="0" y="102.53">6,32 </tspan><tspan class="cls-13" x="33.46" y="102.53">м</tspan><tspan x="44.6" y="102.53">лн 142,0 %</tspan><tspan x="0" y="123.04">По</tspan><tspan class="cls-14" x="20.3" y="123.04">с</tspan><tspan x="27.85" y="123.04">е</tspan><tspan class="cls-4" x="36.41" y="123.04">щ</tspan><tspan x="49.15" y="123.04">ен</tspan><tspan class="cls-15" x="67.04" y="123.04">и</tspan><tspan x="76.57" y="123.04">я проф</tspan><tspan class="cls-15" x="127.97" y="123.04">ил</tspan><tspan x="146.24" y="123.04">я</tspan><tspan x="0" y="143.54">94,2 </tspan><tspan class="cls-2" x="33.46" y="143.54">т</tspan><tspan x="40.36" y="143.54">ыс. 27,3 %</tspan><tspan class="cls-16" x="0" y="164.05">У</tspan><tspan x="8.49" y="164.05">поминан</tspan><tspan class="cls-17" x="74.4" y="164.05">и</tspan><tspan x="83.94" y="164.05">я</tspan><tspan x="0" y="184.55">195 80,6 %</tspan><tspan x="0" y="205.06">Ч</tspan><tspan class="cls-7" x="10.2" y="205.06">и</tspan><tspan class="cls-18" x="19.62" y="205.06">т</tspan><tspan class="cls-2" x="26.4" y="205.06">а</tspan><tspan class="cls-5" x="34.52" y="205.06">т</tspan><tspan class="cls-19" x="41.2" y="205.06">е</tspan><tspan x="49.85" y="205.06">ли</tspan><tspan x="0" y="225.56">20,2 </tspan><tspan class="cls-2" x="33.46" y="225.56">т</tspan><tspan x="40.36" y="225.56">ыс. 3 677</tspan></text><text class="cls-1" transform="translate(409.23 400.29) rotate(180)">Св<tspan class="cls-8" x="18.46" y="0">о</tspan><tspan x="27.72" y="0">д</tspan><tspan class="cls-3" x="36.77" y="0">к</tspan><tspan x="45.13" y="0">а за 28 дн. с уч</tspan><tspan class="cls-4" x="151.04" y="0">е</tspan><tspan class="cls-12" x="159.53" y="0">т</tspan><tspan x="166.21" y="0">ом изменений </tspan><tspan x="0" y="20.51">в пр</tspan><tspan class="cls-20" x="31.13" y="20.51">е</tspan><tspan x="39.75" y="20.51">ды</tspan><tspan class="cls-11" x="60.17" y="20.51">д</tspan><tspan x="69.17" y="20.51">у</tspan><tspan class="cls-4" x="77.22" y="20.51">щ</tspan><tspan x="89.95" y="20.51">ем пери</tspan><tspan class="cls-8" x="150.05" y="20.51">о</tspan><tspan class="cls-4" x="159.31" y="20.51">д</tspan><tspan x="168.3" y="20.51">е</tspan><tspan class="cls-9" x="0" y="41.01">Т</tspan><tspan x="7.35" y="41.01">в</tspan><tspan class="cls-11" x="15.89" y="41.01">и</tspan><tspan class="cls-21" x="25.31" y="41.01">т</tspan><tspan x="32.21" y="41.01">ы</tspan><tspan x="0" y="61.52">86, 64,5 %</tspan><tspan x="0" y="82.02">По</tspan><tspan class="cls-3" x="20.3" y="82.02">к</tspan><tspan x="28.66" y="82.02">азы </tspan><tspan class="cls-8" x="59.24" y="82.02">т</tspan><tspan x="66.15" y="82.02">в</tspan><tspan class="cls-22" x="74.69" y="82.02">и</tspan><tspan class="cls-12" x="84.11" y="82.02">т</tspan><tspan class="cls-23" x="90.79" y="82.02">ов</tspan><tspan x="0" y="102.53">5 476, 69,1 %</tspan><tspan x="0" y="123.04">По</tspan><tspan class="cls-14" x="20.3" y="123.04">с</tspan><tspan x="27.85" y="123.04">е</tspan><tspan class="cls-4" x="36.42" y="123.04">щ</tspan><tspan x="49.15" y="123.04">ен</tspan><tspan class="cls-15" x="67.04" y="123.04">и</tspan><tspan x="76.57" y="123.04">я проф</tspan><tspan class="cls-15" x="127.97" y="123.04">ил</tspan><tspan x="146.24" y="123.04">я</tspan><tspan x="0" y="143.54">1 420, 54,3 %</tspan><tspan class="cls-24" x="0" y="164.05">У</tspan><tspan x="8.49" y="164.05">поминан</tspan><tspan class="cls-15" x="74.4" y="164.05">и</tspan><tspan x="83.94" y="164.05">я</tspan><tspan x="0" y="184.55">36, 56,6 %</tspan><tspan x="0" y="205.06">Ч</tspan><tspan class="cls-11" x="10.2" y="205.06">и</tspan><tspan class="cls-25" x="19.62" y="205.06">т</tspan><tspan class="cls-8" x="26.4" y="205.06">а</tspan><tspan class="cls-12" x="34.52" y="205.06">т</tspan><tspan class="cls-19" x="41.2" y="205.06">е</tspan><tspan x="49.85" y="205.06">ли</tspan><tspan x="0" y="225.56">33, 3</tspan></text><line class="cls-26" x1="122.47" y1="237.38" x2="122.47" y2="249.02"/><path class="cls-27" d="M118.87,242.5a.38.38,0,0,0,.52-.11l3.08-4.84,3.08,4.84a.38.38,0,0,0,.52.11.37.37,0,0,0,.12-.52l-3.4-5.33a.37.37,0,0,0-.32-.17.34.34,0,0,0-.31.17l-3.4,5.33a.42.42,0,0,0-.06.21A.37.37,0,0,0,118.87,242.5Z"/><line class="cls-28" x1="330.1" y1="340.49" x2="330.1" y2="352.13"/><path class="cls-29" d="M326.5,345.62a.37.37,0,0,0,.52-.12l3.08-4.84,3.09,4.84a.36.36,0,0,0,.51.12.38.38,0,0,0,.12-.52l-3.4-5.33a.37.37,0,0,0-.63,0l-3.4,5.33a.36.36,0,0,0-.06.2A.37.37,0,0,0,326.5,345.62Z"/><line class="cls-28" x1="306.96" y1="299.2" x2="306.96" y2="310.84"/><path class="cls-29" d="M303.36,304.32a.38.38,0,0,0,.52-.11l3.08-4.84,3.09,4.84a.38.38,0,0,0,.63-.41l-3.4-5.33a.37.37,0,0,0-.32-.17.37.37,0,0,0-.31.17l-3.4,5.33a.42.42,0,0,0-.06.21A.37.37,0,0,0,303.36,304.32Z"/><line class="cls-28" x1="306.96" y1="257.9" x2="306.96" y2="269.54"/><path class="cls-29" d="M303.36,263a.37.37,0,0,0,.52-.12l3.08-4.84,3.09,4.84a.36.36,0,0,0,.51.12.38.38,0,0,0,.12-.52l-3.4-5.34A.37.37,0,0,0,307,257a.37.37,0,0,0-.31.17l-3.4,5.34a.36.36,0,0,0-.06.2A.4.4,0,0,0,303.36,263Z"/><line class="cls-28" x1="328.32" y1="217.12" x2="328.32" y2="228.75"/><path class="cls-29" d="M324.72,222.24a.38.38,0,0,0,.52-.11l3.08-4.84,3.09,4.84a.38.38,0,0,0,.63-.41l-3.4-5.33a.37.37,0,0,0-.63,0l-3.4,5.33a.41.41,0,0,0-.06.2A.37.37,0,0,0,324.72,222.24Z"/><line class="cls-28" x1="369.27" y1="175.46" x2="369.27" y2="187.1"/><path class="cls-29" d="M365.67,180.59a.36.36,0,0,0,.51-.12l3.09-4.84,3.08,4.84a.37.37,0,0,0,.52.12.38.38,0,0,0,.11-.52l-3.4-5.34a.38.38,0,0,0-.63,0l-3.4,5.34a.37.37,0,0,0,.12.52Z"/><line class="cls-26" x1="142.76" y1="163.78" x2="142.76" y2="175.42"/><path class="cls-27" d="M139.16,168.91a.37.37,0,0,0,.52-.12l3.08-4.84,3.09,4.84a.36.36,0,0,0,.51.12.38.38,0,0,0,.12-.52l-3.4-5.34a.38.38,0,0,0-.63,0l-3.4,5.34a.36.36,0,0,0-.06.2A.39.39,0,0,0,139.16,168.91Z"/><line class="cls-26" x1="176.66" y1="277.96" x2="176.66" y2="289.6"/><path class="cls-27" d="M173.06,283.09a.37.37,0,0,0,.52-.12l3.08-4.84,3.09,4.84a.36.36,0,0,0,.51.12.38.38,0,0,0,.12-.52l-3.4-5.34a.38.38,0,0,0-.63,0l-3.4,5.34a.36.36,0,0,0-.06.2A.39.39,0,0,0,173.06,283.09Z"/><line class="cls-26" x1="106.1" y1="203.15" x2="106.1" y2="214.79"/><path class="cls-27" d="M102.5,208.28a.36.36,0,0,0,.51-.12l3.09-4.84,3.08,4.84a.37.37,0,0,0,.52.12.38.38,0,0,0,.11-.52l-3.4-5.34a.37.37,0,0,0-.31-.17.37.37,0,0,0-.32.17l-3.4,5.34a.36.36,0,0,0-.06.2A.38.38,0,0,0,102.5,208.28Z"/><line class="cls-26" x1="132.8" y1="244.8" x2="132.8" y2="256.44"/><path class="cls-27" d="M129.2,249.93a.36.36,0,0,0,.51-.12L132.8,245l3.08,4.84a.37.37,0,0,0,.52.12.38.38,0,0,0,.11-.52l-3.4-5.33a.37.37,0,0,0-.63,0l-3.4,5.33a.37.37,0,0,0,.12.52Z"/><polygon class="cls-30" points="308.77 13 412.75 13 412.75 166.09 360.28 165.54 359.7 183.78 338 183.78 337.5 210.72 319.1 210.75 315.78 248.07 294.06 248.23 294.5 268.03 247.23 268.03 247.23 297.42 295.98 297.42 295.98 331.35 322.58 331.35 322.58 371.45 214.91 371.45 214.91 392.24 131.69 392.24 131.69 414.06 17.07 414.06 17.07 268.03 141.82 268.03 141.82 233.34 95.13 233.34 95.13 219.94 115.73 219.94 115.73 183.78 168.92 183.78 168.92 159.02 194.04 159.02 194.04 127.45 168.92 127.45 163.01 105.62 141.82 105.62 141.82 85.97 114.26 85.97 118.26 74.53 69.5 74.53 69.5 59.68 209.52 59.68 205.52 34.34 308.77 34.34 308.77 13"/><text class="cls-1" transform="translate(113.09 396.88) rotate(180)">b<tspan class="cls-31" x="9.72" y="0">r</tspan><tspan x="15.14" y="0">ead stick</tspan></text><text class="cls-1" transform="translate(323.32 29.9)"><tspan class="cls-14">t</tspan><tspan class="cls-21" x="5.55" y="0">o</tspan><tspan x="14.82" y="0">y u</tspan><tspan class="cls-32" x="35.9" y="0">k</tspan><tspan class="cls-23" x="43.98" y="0">ulele</tspan></text><rect class="cls-33" x="18.07" y="13" width="395.68" height="401.05"/></svg>